# xmcd
#
# Track frame offsets:
#	150
#	13872
#	30248
#	46694
#	64485
#	82777
#	100490
#	118615
#	136740
#	150707
#	168238
#	184457
#	201163
#	218918
#	234739
#	249969
#	268501
#	282223
#	299754
#	315973
#
# Disc length: 4414 seconds
#
# Revision: 1
# Processed by: cddbd v1.5.2PL0 Copyright (c) Steve Scherf et al.
# Submitted via: audiograbber 1.83.01
#
DISCID=19113c14
DTITLE=TopTunes - TT064
DYEAR=1900
DGENRE=
TTITLE0=Irene Kelley - A Little Bluer Than That
TTITLE1=Tammy Cochran - Angels In Waiting
TTITLE2=Lila McCann - Come A Little Coser
TTITLE3=Dixie Chicks - Heart Break Town
TTITLE4=Jessica Andrews - Helplessly Hopelessly
TTITLE5=Chely Wright - I Could Never Love You Enough
TTITLE6=Alison Krauss and Gilian Welch - I'll Fly Away (Low)
TTITLE7=Alison Krauss and Gilian Welch - I'll Fly Away (High)
TTITLE8=Lee Ann Womack - I'll Think Of A Reason Later
TTITLE9=Meridith Edwards - The Bird Song
TTITLE10=Martina McBride - There You Are
TTITLE11=Pam Tiilis - Thunder And Roses
TTITLE12=Dixie Chicks and Stevie Nicks - Too Far From Texas
TTITLE13=Martina McBride - When God Fearin' Women Get The Blues
TTITLE14=Coley McCabe - Who Am I To You
TTITLE15=Patty Loveless - You Don't Even Know Who I Am
TTITLE16=Irene Kelley - w/Vocals A Little Bluer Than That
TTITLE17=Meridith Edwards - w/Vocals The Bird Song
TTITLE18=Martina McBride - w/Vocals There You Are
TTITLE19=Coley McCabe - w/Vocals Who Am I To You
EXTD=
EXTT0=
EXTT1=
EXTT2=
EXTT3=
EXTT4=
EXTT5=
EXTT6=
EXTT7=
EXTT8=
EXTT9=
EXTT10=
EXTT11=
EXTT12=
EXTT13=
EXTT14=
EXTT15=
EXTT16=
EXTT17=
EXTT18=
EXTT19=
PLAYORDER=
